<?xml version="1.0" encoding="UTF-8" standalone="no"?>
<svg
   xmlns:dc="http://purl.org/dc/elements/1.1/"
   xmlns:cc="http://creativecommons.org/ns#"
   xmlns:rdf="http://www.w3.org/1999/02/22-rdf-syntax-ns#"
   xmlns:svg="http://www.w3.org/2000/svg"
   xmlns="http://www.w3.org/2000/svg"
   xmlns:sodipodi="http://sodipodi.sourceforge.net/DTD/sodipodi-0.dtd"
   xmlns:inkscape="http://www.inkscape.org/namespaces/inkscape"
   width="100%"
   height="100%"
   viewBox="0 0 370 370"
   version="1.1"
   xml:space="preserve"
   style="clip-rule:evenodd;fill-rule:evenodd;stroke-linejoin:round;stroke-miterlimit:1.41420996"
   id="svg3815"
   sodipodi:docname="smsafe.svg"
   inkscape:version="0.92.5 (2060ec1f9f, 2020-04-08)"><metadata
   id="metadata3821"><rdf:RDF><cc:Work
       rdf:about=""><dc:format>image/svg+xml</dc:format><dc:type
         rdf:resource="http://purl.org/dc/dcmitype/StillImage" /><dc:title></dc:title></cc:Work></rdf:RDF></metadata><defs
   id="defs3819" /><sodipodi:namedview
   pagecolor="#ffffff"
   bordercolor="#666666"
   borderopacity="1"
   objecttolerance="10"
   gridtolerance="10"
   guidetolerance="10"
   inkscape:pageopacity="0"
   inkscape:pageshadow="2"
   inkscape:window-width="1920"
   inkscape:window-height="1017"
   id="namedview3817"
   showgrid="false"
   inkscape:zoom="2.4687294"
   inkscape:cx="217.25344"
   inkscape:cy="212.61894"
   inkscape:window-x="2560"
   inkscape:window-y="243"
   inkscape:window-maximized="1"
   inkscape:current-layer="svg3815"
   viewbox-width="370"
   viewbox-height="370" />
    <g
   id="g3813"
   transform="matrix(0.1,0,0,0.1,25.66,7.62)">
        <g
   transform="matrix(1.18688,0,0,0.911295,-541.164,-386.333)"
   id="g3789">
            <path
   d="M 1800.12,699.283 2929.9,1454.97 2498.36,2677.7 H 1101.88 L 670.343,1454.97 Z"
   style="fill:#ffffff"
   id="path3787"
   inkscape:connector-curvature="0" />
        </g>
        <g
   transform="matrix(1.18688,0,0,-1.00701,-547.439,4045.03)"
   id="g3793">
            <path
   d="M 1800.12,699.283 2929.9,1454.97 2498.36,2677.7 H 1101.88 L 670.343,1454.97 Z"
   style="fill:#ffffff"
   id="path3791"
   inkscape:connector-curvature="0" />
        </g>
        <g
   id="g3799">
            <path
   d="M 2153.3,2201.2 1600.9,2522 c -3.2,1.9 -7.2,1.9 -10.5,0 l -0.1,296.1 810.5,-474.9 z"
   style="fill:#0c789f;fill-rule:nonzero"
   id="path3795"
   inkscape:connector-curvature="0" />
            <path
   d="m 3043,939.1 -1451.1,-836.2 -1.9,1.1 0.6,397.4 1101.2,629.6 -195,112.7 -906.6,-521.6 0.4,326.5 0.4,-0.2 642.3,367.3 -0.3,608 547.5,313.5 -0.2,9.4 -1189,694.1 -0.2,403.9 0.2,0.1 1451.8,-834.2 z"
   style="fill:#0c789f;fill-rule:nonzero"
   id="path3797"
   inkscape:connector-curvature="0" />
        </g>
        <path
   d="M 3043,939.1 1591.9,102.9 143.7,939.7 v 1671 l 1447.7,834 1451.7,-834.3 z m -262.7,1407.5 -1189,694.2 -1102.5,-629.6 193,-113 907.5,520.5 811.5,-475.5 -247.5,-142 -552.4,320.8 c -3.2,1.9 -7.2,1.9 -10.5,0 l -633.8,-367.3 -0.3,-639 -556.8,-319.3 1186.8,-695.7 c 1,-0.6 2.2,-0.6 3.2,0 l 1102.3,630.3 -195,112.8 -906.7,-521.7 -804.2,472 279,160.3 526,-306 642.3,367.3 -0.3,608 547.5,313.5 z"
   style="fill:#07698d;fill-rule:nonzero"
   id="path3801"
   inkscape:connector-curvature="0" />
        <path
   d="m 1765.9,1617.8 c 0,-97.7 -79.2,-177 -177,-177 -97.8,0 -177,79.2 -177,177 0,73.6 45,136.8 108.9,163.4 l -76.5,349.8 h 289.3 l -77.1,-349.6 c 64.3,-26.6 109.4,-89.8 109.4,-163.6 z"
   style="fill:#535352;fill-rule:nonzero"
   id="path3803"
   inkscape:connector-curvature="0" />
        <path
   d="m 1765.9,1617.8 c 0,-96.6 -77.4,-175.1 -173.5,-176.9 l 2.3,690.2 h 139 l -77.1,-349.6 c 64.2,-26.7 109.3,-89.9 109.3,-163.7 z"
   style="fill:#5d5d5d;fill-rule:nonzero"
   id="path3805"
   inkscape:connector-curvature="0" />
        <g
   id="g3811">
            <path
   d="M 2153.3,2201.2 1600.9,2522 c -3.2,1.9 -7.2,1.9 -10.5,0 l -0.1,296.1 810.5,-474.9 z"
   style="fill:#0c789f;fill-rule:nonzero"
   id="path3807"
   inkscape:connector-curvature="0" />
            <path
   d="m 3043,939.1 -1451.1,-836.2 -1.9,1.1 0.6,397.4 1101.2,629.6 -195,112.7 -906.6,-521.6 0.4,326.5 0.4,-0.2 642.3,367.3 -0.3,608 547.5,313.5 -0.2,9.4 -1189,694.1 -0.2,403.9 0.2,0.1 1451.8,-834.2 z"
   style="fill:#0c789f;fill-rule:nonzero"
   id="path3809"
   inkscape:connector-curvature="0" />
        </g>
    </g>
</svg>